<svg id="Camada_1" data-name="Camada 1" xmlns="http://www.w3.org/2000/svg" viewBox="0 0 1073.72 857.74"><path d="M1010.56,857.74l-1.74,0c-126.13-2.75-155.26-54.59-186.1-109.48-32.42-57.71-66-117.38-203.87-120.15-358-40.38-557.25-147.34-609.07-327-18-62.36-11.14-118,20.35-165.29C89.45,46.64,230.38,0,338.92,0h3c127,2.44,156.23,54.45,187.15,109.51,31.91,56.82,64.87,115.55,197.49,120l.11.28h81.48l69.31,163.11H812.38C686.56,390.49,658.89,339,629.6,284.49c-29.18-54.27-59.34-110.4-177.73-120.66-7.5-.65-15-1-22.21-1-60.22,0-109.52,23.07-131.88,61.7-15.56,26.87-16.76,59-3.39,90.5C328.64,395.71,452,463.16,569.44,465.42c121.59,2.34,146,53.91,171.77,108.51,26.95,57,54.81,116,182.72,120.42l.11.28h80.37l69.31,163.11Z"/></svg>