<svg width="769" height="457" viewBox="0 0 769 457" fill="none" xmlns="http://www.w3.org/2000/svg">
<g clip-path="url(#clip0_289_122)">
<path d="M431.09 325.14L423.94 324.17C417.9 323.31 413.46 321.68 410.6 319.3C407.74 316.92 405.2 312.7 402.98 306.64L327.72 100.81C327.08 98.6501 326.05 97.2401 324.62 96.5901C323.19 95.9401 321.68 95.6201 320.1 95.6201C318.83 95.6201 317.48 95.9401 316.05 96.5901C314.62 97.2401 313.59 98.6501 312.95 100.81L239.12 303.72C236.89 309.78 233.62 315.06 230.45 318.41C229.82 319.01 229.13 319.39 228.54 319.79C226.08 321.47 223.56 321.91 221.73 322.38C219.66 322.92 217.36 323.19 214.82 323.19C207.51 323.19 201.48 320.81 196.72 316.05C191.96 311.29 187.83 303.28 184.33 292.03L173.85 258.92C170.67 249.18 166.15 241.39 160.27 235.54C154.39 229.7 146.37 225.15 136.21 221.9C133.98 221.25 132.95 220.44 133.11 219.47C133.27 218.5 134.46 217.8 136.68 217.36C155.09 212.81 170.34 205.08 182.41 194.15C194.47 183.22 200.51 170.94 200.51 157.3C200.51 145.83 196.38 135.71 188.13 126.95C179.87 118.18 168.44 111.32 153.83 106.33C139.22 101.35 122.55 98.8601 103.81 98.8601H7.15C2.39 98.8601 0 100.05 0 102.43C0 104.38 2.06 105.68 6.19 106.33L17.15 107.63C23.82 108.5 28.18 109.69 30.25 111.2C32.31 112.72 33.35 115.75 33.35 120.29V311.18C33.35 315.72 32.32 318.76 30.25 320.27C28.18 321.79 23.82 322.98 17.15 323.84L6.19 325.14C2.06 325.79 0 327.09 0 329.04C0 331.42 2.38 332.61 7.15 332.61H103.85C108.61 332.61 111 331.31 111 328.71C111 326.76 109.25 325.58 105.76 325.14L88.14 323.19C79.25 322.11 73.53 320.76 70.99 319.13C68.44 317.51 67.18 314.42 67.18 309.88V228.72C67.18 226.34 68.45 224.34 70.99 222.71C73.53 221.09 77.02 220.28 81.47 220.28C94.49 220.28 104.73 221.37 112.19 223.53C119.65 225.7 125.53 229.81 129.81 235.87C134.1 241.93 137.98 250.8 141.48 262.49L152.44 298.53C160.06 323.2 177.69 335.54 205.31 335.54C212.95 335.54 219.82 334.59 225.93 332.73C227.86 332.23 229.87 331.51 231.94 330.5C234.15 329.49 235.9 328.42 237.21 327.28C243.14 322.89 249.07 315.69 253.9 304.05L270.1 260.55C272.32 254.92 277.56 252.11 285.82 252.11H335.84C344.41 252.11 349.65 254.93 351.56 260.55L369.66 310.87C371.25 315.63 371.33 318.99 369.9 320.93C368.47 322.88 365.05 324.07 359.66 324.5L350.61 325.15C345.21 325.37 342.51 326.67 342.51 329.05C342.51 331.43 344.73 332.62 349.18 332.62H430.64C435.4 332.62 437.79 331.54 437.79 329.37C437.79 327.2 435.56 325.8 431.12 325.15L431.09 325.14ZM99.08 212.16C77.8 212.16 67.16 206.21 67.16 194.3V119.96C67.16 111.31 75.57 106.97 92.41 106.97C114.95 106.97 132.66 111.46 145.52 120.44C158.38 129.42 164.81 141.92 164.81 157.94C164.81 173.96 159.25 187.54 148.14 197.39C137.02 207.24 120.67 212.16 99.08 212.16ZM336.77 242.35H284.37C279.29 242.35 277.22 240.51 278.18 236.83L310.1 149.82H312.48L342.97 236.83C343.92 240.51 341.85 242.35 336.78 242.35H336.77Z" fill="#1A3A2F"/>
<path d="M440.611 332.6C435.851 332.6 433.461 331.41 433.461 329.03C433.461 327.08 435.521 325.78 439.651 325.13L450.611 323.83C457.281 322.97 461.641 321.78 463.711 320.26C465.771 318.75 466.811 315.72 466.811 311.17V120.28C466.811 115.74 465.781 112.71 463.711 111.19C461.641 109.68 457.281 108.49 450.611 107.62L439.651 106.32C435.521 105.67 433.461 104.37 433.461 102.42C433.461 100.04 435.841 98.8501 440.611 98.8501H526.831C531.591 98.8501 533.981 100.04 533.981 102.42C533.981 104.37 531.911 105.67 527.791 106.32L516.831 107.62C510.161 108.49 505.791 109.68 503.731 111.19C501.661 112.71 500.631 115.74 500.631 120.28V311.17C500.631 315.71 501.661 318.75 503.731 320.26C505.791 321.78 510.161 322.97 516.831 323.83L527.791 325.13C531.911 325.78 533.981 327.08 533.981 329.03C533.981 331.41 531.601 332.6 526.831 332.6H440.611Z" fill="#1A3A2F"/>
<path d="M562.08 332.6C557.63 332.6 554.53 331.74 552.79 330C551.04 328.27 551.12 326 553.03 323.18L690.69 113.78C692.6 110.32 690.85 108.59 685.45 108.59H637.82C626.07 108.59 615.35 111.14 605.67 116.22C595.98 121.31 587.96 130.99 581.61 145.28L574.46 161.51C573.51 164.33 571.28 165.73 567.79 165.73C563.03 165.73 560.96 163.89 561.6 160.21L570.17 99.8201C570.8 94.8401 573.5 92.3501 578.27 92.3501C580.49 92.3501 582.56 92.8901 584.46 93.9701C586.37 95.0601 589.62 96.1401 594.23 97.2201C598.83 98.3101 606.21 98.8401 616.38 98.8401H721.65C726.09 98.8401 729.19 99.6501 730.94 101.27C732.68 102.89 732.61 105.22 730.7 108.25L593.04 317.65C591.13 321.11 592.88 322.84 598.28 322.84H651.15C660.04 322.84 668.77 321.98 677.35 320.24C685.92 318.51 693.55 314.88 700.21 309.36C706.87 303.84 711.8 295.56 714.98 284.52L721.17 262.77C722.12 259.96 724.5 258.55 728.32 258.55C732.76 258.55 734.67 260.39 734.04 264.07L728.32 325.1C727.68 330.08 723.71 332.57 716.41 332.57H562.07L562.08 332.6Z" fill="#1A3A2F"/>
<path d="M4.12914 443.87L17.3291 409.12H21.8191L35.1291 443.87H30.5291L18.9291 412.44H20.2091L8.60914 443.87H4.11914H4.12914ZM11.1791 434.79V430.78H27.8591V434.79H11.1791Z" fill="#1A3A2F"/>
<path d="M96.0195 432.27C95.6595 434.76 94.8095 436.92 93.4495 438.74C92.0895 440.56 90.3795 441.96 88.2895 442.94C86.2095 443.92 83.8795 444.41 81.3095 444.41C78.9195 444.41 76.7095 443.99 74.6795 443.15C72.6495 442.31 70.8795 441.11 69.3595 439.54C67.8395 437.97 66.6595 436.08 65.7995 433.87C64.9495 431.66 64.5195 429.2 64.5195 426.49C64.5195 423.78 64.9495 421.28 65.7995 419.09C66.6595 416.9 67.8395 415.02 69.3595 413.45C70.8695 411.88 72.6495 410.68 74.6795 409.84C76.7095 409 78.9195 408.58 81.3095 408.58C83.9095 408.58 86.2495 409.07 88.3395 410.05C90.4295 411.03 92.1395 412.44 93.4995 414.27C94.8495 416.11 95.7095 418.29 96.0695 420.82H92.1095C91.6095 419.04 90.8395 417.54 89.7795 416.33C88.7295 415.12 87.4695 414.19 86.0095 413.55C84.5495 412.91 82.9795 412.59 81.3095 412.59C79.1395 412.59 77.0995 413.13 75.1895 414.19C73.2795 415.26 71.7395 416.83 70.5695 418.89C69.3895 420.96 68.8095 423.49 68.8095 426.48C68.8095 429.47 69.3995 432 70.5695 434.07C71.7495 436.14 73.2895 437.7 75.1895 438.77C77.0995 439.84 79.1395 440.37 81.3095 440.37C82.9795 440.37 84.5395 440.06 85.9895 439.43C87.4295 438.81 88.6795 437.89 89.7295 436.68C90.7795 435.47 91.5595 433.99 92.0595 432.24H96.0195V432.27ZM76.9295 450.24C76.9695 450.49 77.0495 450.82 77.1995 451.23C77.3395 451.64 77.6195 452.01 78.0295 452.35C78.4395 452.69 79.0395 452.86 79.8195 452.86C80.7095 452.86 81.3095 452.6 81.6095 452.08C81.9095 451.56 82.0595 451.07 82.0595 450.61C82.0595 450.22 81.9795 449.8 81.8195 449.35C81.6595 448.9 81.3595 448.45 80.9095 447.99C80.4595 447.53 79.7995 447.12 78.9095 446.76L81.1595 445.58C81.9795 445.79 82.7095 446.12 83.3495 446.57C83.9895 447.02 84.5095 447.59 84.8995 448.31C85.2895 449.02 85.4895 449.91 85.4895 450.98C85.4895 452.26 85.0095 453.45 84.0495 454.53C83.0895 455.62 81.5895 456.16 79.5595 456.16C78.2795 456.16 77.1695 455.87 76.2495 455.3C75.3295 454.73 74.6495 453.99 74.2195 453.08C73.7895 452.17 73.6695 451.22 73.8495 450.22H76.9495L76.9295 450.24ZM78.9095 443.02H83.2395V447.3L78.9095 446.76V443.02Z" fill="#1A3A2F"/>
<path d="M125.469 443.87L138.669 409.12H143.159L156.469 443.87H151.869L140.269 412.44H141.549L129.949 443.87H125.459H125.469ZM132.529 434.79V430.78H149.209V434.79H132.529Z" fill="#1A3A2F"/>
<path d="M189.619 404.26L195.289 395.65H200.899L193.419 404.26H189.629H189.619ZM189.619 409.13H193.899V443.88H189.619V409.13Z" fill="#1A3A2F"/>
<path d="M264.988 443.87L278.189 409.12H282.678L295.988 443.87H291.389L279.789 412.44H281.069L269.469 443.87H264.979H264.988ZM272.048 434.79V430.78H288.729V434.79H272.048Z" fill="#1A3A2F"/>
<path d="M328.069 443.87V409.12H343.409C345.829 409.12 347.899 409.49 349.609 410.22C351.319 410.95 352.629 412.05 353.539 413.51C354.449 414.97 354.899 416.81 354.899 419.02C354.899 420.52 354.659 421.8 354.179 422.87C353.699 423.94 353.029 424.84 352.179 425.57C351.329 426.3 350.319 426.86 349.159 427.25C347.999 427.64 346.739 427.89 345.389 428L345.229 427.73C347.119 427.8 348.739 428.03 350.099 428.42C351.449 428.81 352.509 429.53 353.249 430.56C353.999 431.59 354.369 433.14 354.369 435.21V443.87H350.089V435.21C350.089 433.79 349.849 432.67 349.369 431.87C348.889 431.07 348.089 430.5 346.959 430.16C345.839 429.82 344.299 429.65 342.339 429.65H332.339V443.87H328.059H328.069ZM332.339 425.65H343.409C345.829 425.65 347.639 425.03 348.839 423.81C350.029 422.58 350.629 420.99 350.629 419.02C350.629 417.05 350.029 415.68 348.839 414.66C347.649 413.64 345.839 413.14 343.409 413.14H332.339V425.65Z" fill="#1A3A2F"/>
<path d="M385.639 409.13H413.439V413.14H385.639V409.13ZM397.399 412.71H401.679V443.87H397.399V412.71Z" fill="#1A3A2F"/>
<path d="M449.52 428.59V439.87H469.89V443.88H445.25V409.13H469.84V413.14H449.53V424.58H466.15V428.59H449.53H449.52Z" fill="#1A3A2F"/>
<path d="M501.739 432.59H505.589C505.699 434.09 506.139 435.42 506.929 436.6C507.709 437.78 508.789 438.7 510.159 439.38C511.529 440.06 513.139 440.4 514.999 440.4C516.599 440.4 517.949 440.16 519.039 439.68C520.129 439.2 520.949 438.53 521.499 437.68C522.049 436.83 522.329 435.83 522.329 434.69C522.329 433.55 522.039 432.57 521.469 431.86C520.899 431.15 520.079 430.54 519.009 430.04C517.939 429.54 516.679 429.06 515.209 428.6C513.819 428.17 512.409 427.67 510.989 427.1C509.559 426.53 508.239 425.84 507.009 425.02C505.779 424.2 504.789 423.21 504.039 422.05C503.289 420.89 502.919 419.49 502.919 417.85C502.919 416.21 503.359 414.74 504.229 413.33C505.099 411.92 506.389 410.78 508.079 409.91C509.769 409.04 511.809 408.6 514.199 408.6C517.939 408.6 520.739 409.62 522.589 411.65C524.439 413.68 525.329 416.37 525.259 419.72H521.409C521.339 417.19 520.629 415.37 519.269 414.27C517.909 413.17 516.149 412.61 513.979 412.61C512.159 412.61 510.579 413.03 509.219 413.87C507.859 414.71 507.189 416.02 507.189 417.8C507.189 418.58 507.339 419.27 507.639 419.86C507.939 420.45 508.439 420.99 509.139 421.49C509.829 421.99 510.779 422.48 511.969 422.96C513.159 423.44 514.629 423.97 516.379 424.54C517.519 424.9 518.689 425.33 519.879 425.82C521.069 426.32 522.179 426.94 523.189 427.69C524.199 428.44 525.019 429.39 525.649 430.55C526.269 431.71 526.589 433.16 526.589 434.91C526.589 436.66 526.189 438.14 525.389 439.59C524.589 441.04 523.339 442.2 521.649 443.09C519.959 443.98 517.769 444.43 515.099 444.43C512.819 444.43 510.869 444.12 509.249 443.49C507.629 442.87 506.299 442.06 505.269 441.06C504.239 440.06 503.439 439.02 502.889 437.93C502.339 436.84 501.969 435.82 501.789 434.86C501.609 433.9 501.589 433.15 501.739 432.61V432.59Z" fill="#1A3A2F"/>
<path d="M556.53 443.87L569.729 409.12H574.219L587.53 443.87H582.93L571.33 412.44H572.609L561.01 443.87H556.52H556.53ZM563.59 434.79V430.78H580.27V434.79H563.59Z" fill="#1A3A2F"/>
<path d="M646.449 438.8L645.269 439.17V409.13H649.549V443.88H645.269L622.709 414.27L623.889 413.9V443.89H619.609V409.14H623.889L646.449 438.81V438.8Z" fill="#1A3A2F"/>
<path d="M681.619 443.87L694.819 409.12H699.309L712.619 443.87H708.019L696.419 412.44H697.699L686.099 443.87H681.609H681.619ZM688.679 434.79V430.78H705.359V434.79H688.679Z" fill="#1A3A2F"/>
<path d="M748.969 409.13V439.87H768.209V443.88H744.689V409.13H748.969Z" fill="#1A3A2F"/>
<path d="M495.129 54.6098C492.679 59.6098 490.409 64.5098 488.489 69.7498C486.379 75.5198 484.459 81.3798 484.039 87.5798C483.889 89.8498 483.439 88.4698 480.609 80.6498L478.379 74.4998C474.479 63.7198 472.999 53.6198 478.109 42.9698C479.839 39.3498 481.909 36.0998 484.369 32.9298C487.679 28.6898 494.659 20.9298 498.639 17.5298L510.349 7.52977C513.019 5.24977 515.309 2.83977 517.409 0.00976562C518.379 0.519766 518.229 1.36977 518.239 2.18977C518.239 6.52977 517.459 9.12977 517.539 12.6698C517.629 16.7398 518.099 19.5298 519.289 23.3798C520.799 28.2598 521.499 33.0498 521.269 38.1998C520.979 44.6098 519.589 50.7998 517.039 56.6598C514.759 61.9098 510.939 66.6898 506.249 69.9098L497.689 75.7798C492.799 79.1298 488.419 82.2698 484.869 87.1198L485.719 83.8898C486.499 80.9298 487.049 78.0098 488.049 75.0998C489.439 71.0898 490.689 67.2098 492.509 63.3798L498.449 50.8798L500.679 46.3098C503.539 40.4298 506.559 33.2898 507.849 26.9698C507.889 26.7598 507.329 26.5698 507.209 26.6898C507.089 26.8098 506.789 27.0998 506.729 27.2998C506.039 29.4498 505.409 31.9198 504.569 34.0998C502.679 39.0198 500.509 43.6198 498.199 48.3298L495.119 54.6298L495.129 54.6098Z" fill="#1A3A2F"/>
</g>
<defs>
<clipPath id="clip0_289_122">
<rect width="768.22" height="456.17" fill="white"/>
</clipPath>
</defs>
</svg>
