<svg width="482" height="436" viewBox="0 0 482 436" fill="none" xmlns="http://www.w3.org/2000/svg">
<g clip-path="url(#clip0_288_55)">
<path d="M97.1238 276.186C114.114 281.075 126.599 256.562 131.585 241.992C134.185 234.386 136.299 227.033 137.971 219.136C138.564 216.342 139.978 212.818 143.351 212.755C146.723 212.692 149.197 216.011 149.999 219.311C154.212 236.675 155.938 254.394 155.165 272.245L154.086 283.456C150.383 307.581 139.584 332.774 116.792 343.801C107.218 348.432 96.735 350.26 86.194 349.647C69.0241 348.651 53.842 341.488 42.2609 328.881C36.8714 323.011 32.1622 316.863 28.352 309.787C24.712 303.022 21.5142 296.442 18.8316 289.133C12.057 270.67 8.08161 251.634 4.88868 232.141C0.616874 206.131 -0.656408 180.408 0.300983 154.034C1.35557 124.913 6.83262 92.5224 19.7015 66.4347C24.09 57.5315 29.3726 49.6877 35.9917 42.3882C51.9515 24.7907 75.7648 16.8059 99.0434 21.8942C111.927 24.7081 123.085 31.2251 131.731 41.1781C145.047 56.5061 151.078 73.5836 153.649 93.6548C156.02 112.166 153.119 137.082 141.732 151.92C137.684 157.192 131.857 159.438 125.267 158.752C119.46 158.15 113.443 157.071 108.787 153.703C104.632 150.7 104.763 146.287 106.581 142.195L110.634 133.063C114.376 124.627 116.801 116.02 117.841 106.767C118.352 102.208 117.38 97.3239 115.786 93.1639C113.764 87.8861 108.88 85.3639 103.359 85.9616C85.8101 87.857 76.45 118.348 73.3008 134.614C71.1528 145.718 69.6025 156.473 69.1359 167.763C68.1445 191.765 69.6462 217.158 75.2739 240.461C78.2967 252.975 84.3375 272.512 97.1287 276.196L97.1238 276.186Z" fill="#FECA24"/>
<path d="M283.009 350.958L276.059 351.556C254.117 353.437 232.943 357.796 211.9 364.551L176.802 377.551C172.783 379.039 169.06 380.419 164.832 381.157C152.765 383.267 139.376 375.063 131.6 365.936C130.099 364.172 128.621 362 128.13 359.789C126.726 353.495 135.056 349.496 141.228 346.784C159.919 338.58 179.28 333.03 199.415 329.235C213.678 326.547 227.441 324.783 241.934 324.302L269.615 324.263L276.895 324.73L283.675 325.25C314.768 327.626 345.244 334.192 374.219 345.705C376.391 346.57 377.893 348.227 378.291 349.821C379.565 354.929 374.019 359.045 371.162 358.384L364.305 356.8C352.529 354.083 340.87 352.363 328.837 351.478L322.106 350.983L311.896 350.482H289.56L282.994 350.944L283.009 350.958Z" fill="#FECA24"/>
<path d="M440.934 332.855C430.15 345.933 411.707 348.329 398.007 338.502C392.905 334.843 389.41 329.458 387.564 323.267C380.599 299.92 391.126 269.696 415.838 265.352C430.058 262.854 442.966 269.993 448.9 282.954C451.918 289.544 452.822 296.664 452.156 303.973C451.189 314.626 447.894 324.409 440.93 332.855H440.934Z" fill="#FECA24"/>
<path d="M414.268 212.491L414.808 204.565L415.25 196.167L415.274 157.983L414.817 149.649L414.312 141.868L413.831 134.578L413.374 128.737L412.319 115.255L411.901 107.839L411.376 97.1428L411.362 77.2612C411.357 70.0783 412.246 63.2794 414.628 56.5582C417.004 49.8516 421.952 45.1133 428.712 42.8194C438.849 39.3835 449.585 38.8926 460.043 41.2691C464.616 42.3091 468.344 44.0392 472.217 46.7413C480.965 52.8356 482.544 64.6304 481.864 75.152L481.504 80.6825C480.659 93.7215 478.423 106.197 475.663 119.061L458.167 200.604L447.378 240.819C446.426 244.362 443.962 247.808 440.618 249.115C433.601 251.856 426.204 251.326 418.846 250.826C413.947 250.491 410.351 247.142 411.012 241.893L413.437 222.58L414.278 212.491H414.268Z" fill="#FECA24"/>
<path d="M372.57 46.6C353.768 62.1564 326.941 75.0058 302.749 77.8537C298.604 78.3446 295.974 76.2645 293.331 73.2369C291.727 71.3998 291.012 66.8802 294.108 65.0334C303.007 59.7119 311.594 54.1619 319.472 46.8381C330.45 36.6373 339.489 24.9542 347.484 12.27L352.849 4.49912C356.397 -0.637741 363.108 -1.07513 368.488 1.65611L376.011 6.28755C380.823 9.90328 383.68 14.6319 384.72 20.6144C386.577 31.3158 380.813 39.7768 372.57 46.6Z" fill="#FECA24"/>
<path d="M389.177 257.251C386.995 264.954 384.371 271.704 381.299 278.804C373.708 296.373 360.528 314.636 341.409 319.593C332.992 321.775 323.836 321.693 315.924 318.174L312.129 316.488C304.737 313.202 298.371 305.752 294.128 298.618C283.383 280.564 281.094 255.866 280.088 234.988V208.278L280.574 192.562L281.04 183.357C282.445 155.651 287.086 125.612 304.484 103.417C315.842 88.935 331.724 78.3696 350.274 76.8339C357.564 76.2313 364.465 77.8108 371.103 80.8093C388.2 88.5316 395.942 108.379 397.21 126.565C398.488 144.891 393.915 163.033 384.079 178.526C370.836 199.385 349.394 213.59 327.739 224.719C323.35 226.974 319.326 230.08 318.967 235.304C318.515 241.923 327.656 246.38 336.418 245.155C340.535 244.581 344.578 243.76 348.301 241.889L359.002 236.519C369.31 230.522 377.999 222.819 386.645 214.718C387.875 213.561 390.781 213.522 392.224 214.202C395.174 215.592 396.802 219.675 396.418 222.411L395.252 230.687C393.983 239.717 391.714 248.265 389.172 257.246L389.177 257.251ZM336.2 188.047L345.132 176.981C351.28 168.151 355.906 158.397 358.186 147.851C359.44 142.048 359.289 136.532 357.165 131.152C355.284 126.385 350.531 123.834 345.482 125.462C341.925 126.609 338.863 129.009 336.53 131.998C332.122 137.655 328.886 143.623 326.145 150.325C320.109 165.099 316.527 180.281 314.666 196.134C314.428 198.15 313.903 200.838 315.983 202.067C318.845 203.754 332.467 192.668 336.195 188.052L336.2 188.047Z" fill="#FECA24"/>
<path d="M211.258 315.911C184.855 313.787 174.396 288.603 167.612 265.767C164.409 254.988 162.699 244.199 160.312 233.206L156.284 209.971C154.515 199.765 153.596 189.9 153.198 179.587C152.473 160.77 156.497 145.685 171.3 133.394C182.784 123.854 195.843 116.506 210.189 112.176C233.667 105.085 250.672 109.532 261.703 131.858C269.231 147.099 271.977 166.548 272.531 183.674C273.489 213.339 271.025 248.325 261.65 276.279C259.074 283.967 255.701 290.785 251.075 297.268C241.797 310.264 227.315 317.213 211.253 315.92L211.258 315.911ZM222.727 263.41C230.323 260.44 233.181 251.683 235.616 243.868C239.402 231.733 240.626 219.292 241.258 206.617L241.19 193.389C241.137 183.47 239.659 173.794 235.669 164.721C233.735 160.323 230.182 156.731 225.386 156.041C220.093 155.278 215.326 157.975 211.89 161.965C209.547 164.692 207.463 167.841 206.267 171.359L203.074 180.739C198.331 200.392 198.929 216.293 202.277 235.864C203.672 244.009 205.864 251.644 210.218 258.569C212.91 262.851 217.77 265.349 222.723 263.41H222.727Z" fill="#FECA24"/>
</g>
<path d="M77.0687 429.881V429.854H76.0256V410.597H84.4777C87.1792 410.597 89.2387 412.469 89.2387 415.117C89.2387 417.765 87.6071 419.075 85.7883 419.61C87.8746 419.958 89.6131 421.483 89.6131 424.345C89.6131 427.608 87.7408 429.881 83.8892 429.881H77.0687ZM78.3258 427.768H83.381C85.6813 427.768 87.2326 426.672 87.2326 424.157C87.2326 421.83 85.8418 421.001 83.4345 421.001H78.3258V427.768ZM78.3258 418.942H83.2206C84.9591 418.942 86.9652 418.005 86.9652 415.518C86.9652 413.512 85.1999 412.683 83.2206 412.683H78.3258V418.942ZM96.083 429.854L102.69 410.597H105.311L111.917 429.854H109.537L108.066 425.254H99.9881L98.517 429.854H96.083ZM100.684 423.141H107.37L104.027 412.71L100.684 423.141ZM130.904 429.854C130.61 429.453 130.423 428.918 130.289 428.223L129.406 423.515C129.166 422.285 128.283 421.697 126.571 421.697H121.623V429.854H119.323V410.597H127.106C129.914 410.597 132.081 412.415 132.081 415.785C132.081 418.701 130.316 419.905 128.845 420.439C130.128 420.627 131.198 421.376 131.519 423.141L132.348 427.527C132.562 428.678 132.803 429.32 133.151 429.854H130.904ZM121.623 419.61H126.009C128.39 419.61 129.968 418.326 129.968 416.053C129.968 413.378 128.203 412.522 125.902 412.522H121.623V419.61ZM153.577 418.433C152.56 417.257 151.865 416.106 151.865 414.742C151.865 412.068 153.924 410.329 157.268 410.329C160.692 410.329 162.591 412.175 162.591 414.742C162.591 417.578 160.13 419.263 157.963 420.573L161.039 424.184L163.286 420.841L164.811 421.964L162.323 425.735L165.827 429.881L163.34 429.854L161.226 427.394C160.076 428.945 158.472 430.122 155.904 430.122C152.427 430.122 150.233 427.982 150.233 425.388C150.233 422.793 152.213 421.188 154.861 419.931L153.577 418.433ZM152.534 425.12C152.534 426.939 153.978 428.009 156.011 428.009C157.776 428.009 158.873 427.233 159.862 425.789L156.091 421.376C154.379 422.151 152.534 423.087 152.534 425.12ZM154.112 414.742C154.138 415.866 154.754 416.748 155.61 417.765L156.84 419.209C158.712 418.059 160.478 416.989 160.451 414.956C160.451 413.485 159.461 412.389 157.321 412.389C155.449 412.389 154.112 413.244 154.112 414.742ZM196.236 429.854C195.942 429.453 195.755 428.918 195.621 428.223L194.738 423.515C194.498 422.285 193.615 421.697 191.903 421.697H186.955V429.854H184.655V410.597H192.438C195.247 410.597 197.413 412.415 197.413 415.785C197.413 418.701 195.648 419.905 194.177 420.439C195.461 420.627 196.53 421.376 196.851 423.141L197.681 427.527C197.895 428.678 198.135 429.32 198.483 429.854H196.236ZM186.955 419.61H191.342C193.722 419.61 195.3 418.326 195.3 416.053C195.3 413.378 193.535 412.522 191.235 412.522H186.955V419.61ZM206.199 429.854V410.597H218.128V412.683H208.499V419.049H217.727V421.162H208.499V427.768H218.342V429.854H206.199ZM232.645 430.122C228.338 430.122 225.931 427.634 225.583 424.398L227.803 423.596C227.91 425.628 229.515 428.009 232.966 428.009C235.747 428.009 237.245 426.484 237.245 424.345C237.245 418.808 226.359 422.526 226.359 415.705C226.359 412.068 229.274 410.329 232.859 410.329C236.282 410.329 238.502 412.068 239.305 415.251L237.165 415.919C236.71 413.806 235.186 412.389 232.671 412.389C230.639 412.389 228.686 413.351 228.686 415.411C228.686 420.065 239.519 416.534 239.519 424.024C239.519 427.634 237.111 430.122 232.645 430.122ZM251.779 429.854V412.683H246.269V410.597H259.562V412.683H254.079V429.854H251.779ZM263.284 429.854L269.891 410.597H272.512L279.119 429.854H276.738L275.267 425.254H267.189L265.718 429.854H263.284ZM267.885 423.141H274.572L271.228 412.71L267.885 423.141ZM293.294 430.122C288.988 430.122 286.233 428.089 286.233 424.452V410.597H288.533V423.997C288.533 426.511 290.084 427.982 293.374 427.982C296.557 427.982 297.6 426.484 297.6 423.997V410.597H299.901V424.452C299.901 428.116 297.627 430.122 293.294 430.122ZM319.754 429.854C319.46 429.453 319.273 428.918 319.139 428.223L318.256 423.515C318.015 422.285 317.133 421.697 315.421 421.697H310.473V429.854H308.172V410.597H315.956C318.764 410.597 320.931 412.415 320.931 415.785C320.931 418.701 319.166 419.905 317.694 420.439C318.978 420.627 320.048 421.376 320.369 423.141L321.198 427.527C321.412 428.678 321.653 429.32 322.001 429.854H319.754ZM310.473 419.61H314.859C317.24 419.61 318.818 418.326 318.818 416.053C318.818 413.378 317.053 412.522 314.752 412.522H310.473V419.61ZM328.7 429.854L335.307 410.597H337.928L344.534 429.854H342.154L340.683 425.254H332.605L331.134 429.854H328.7ZM333.301 423.141H339.987L336.644 412.71L333.301 423.141ZM351.94 429.854V410.597H353.946L362.96 424.505V410.597H365.206V429.854H363.521L354.186 415.251V429.854H351.94ZM378.509 429.854V412.683H372.999V410.597H386.292V412.683H380.809V429.854H378.509ZM394.087 429.854V410.597H406.017V412.683H396.388V419.049H405.615V421.162H396.388V427.768H406.231V429.854H394.087Z" fill="#FFF9E0"/>
<defs>
<clipPath id="clip0_288_55">
<rect width="482" height="381.493" fill="white"/>
</clipPath>
</defs>
</svg>
