<svg width="653" height="409" viewBox="0 0 653 409" fill="none" xmlns="http://www.w3.org/2000/svg">
<g clip-path="url(#clip0_289_107)">
<path d="M237.712 264.497C225.312 257.774 209.707 278.743 203.946 290.056C192.689 312.167 187.652 336.068 185.263 360.611C184.057 373.004 176.638 381.036 164.726 380.646C153.935 380.29 145.269 372.07 145.68 359.684L147.672 299.711C148.181 284.406 146.962 269.415 146.481 254.249C146.168 244.413 151.922 236.931 160.72 235.635C169.609 234.332 178.331 239.738 180.233 249.582L183.019 263.974C193.504 248.23 204.594 235.489 222.247 230.536C239.272 225.764 258.012 228.759 269.98 242.149C288.58 262.957 282.254 296.625 278.151 321.641C276.138 333.909 269.945 365.835 282.101 372.119C285.375 373.812 292.794 373.052 295.915 370.51C308.35 360.367 311.826 345.891 311.081 330.363C309.869 305.006 318.8 279.481 337.866 262.727C360.068 243.215 392.085 242.156 416.293 258.986C420.166 238.429 423.935 218.993 429.292 199.431C431.883 189.964 442.215 185.875 450.128 187.672C459.797 189.867 464.771 198.832 463.002 208.829L451.967 270.968C448.812 288.753 448.791 306.545 449.752 324.651C450.442 337.594 453.974 349.987 460.647 360.597C469.188 374.174 486.464 376.041 498.349 365.814C502.16 362.533 507.879 361.154 512.95 362.108C517.165 362.896 521.916 367.215 524.264 371.889C528.457 380.249 525.183 388.852 518.398 394.404C496.21 412.579 465.447 412.544 443.099 394.355C432.768 385.954 426.728 374.989 421.274 362.603L412.698 372.384C392.022 395.978 356.947 398.939 332.565 378.591C326.504 385.634 321.307 393.094 314.167 398.243C300.813 407.884 284.484 411.165 268.308 404.986C242.163 395.003 234.5 365.389 238.165 341.049L244.845 296.653C246.308 286.935 246.441 269.227 237.705 264.49L237.712 264.497ZM406.059 308.565C406.672 297.238 400.319 287.541 391.145 283.891C381.622 280.101 370.866 281.696 362.778 289.074C349.249 301.397 344.93 321.787 349.911 339.426C352.349 348.05 359.552 353.86 366.317 355.456C390.406 361.133 404.91 329.729 406.059 308.572V308.565Z" fill="#7B75B5"/>
<path d="M626.52 344.546C603.385 353.108 580.828 341.934 571.925 318.785C562.047 330.983 552.322 340.123 538.501 343.843C509.946 351.527 481.286 336.263 473.289 307.541C466.093 281.689 471.513 254.57 487.688 233.392C507.849 206.997 545.523 198.742 573.499 221.563C575.666 209.776 585.837 204.914 595.234 206.823C606.784 209.17 612.121 219.146 609.641 230.605C606.366 245.771 591.807 306.266 612.267 312.111C621.497 314.744 620.961 290.502 641.86 296.723C650.136 299.189 655.416 309.436 651.884 318.687C647.502 330.168 638.613 340.067 626.52 344.546ZM557.421 275.064C560.716 265.082 559.908 255.092 552.468 248.606C545.279 242.344 533.283 240.769 524.805 246.983C509.862 257.934 503.572 278.499 508.615 296.11C510.601 303.041 516.334 308.746 521.336 309.986C541.998 315.107 552.224 290.815 557.421 275.071V275.064Z" fill="#7B75B5"/>
<path d="M348.928 96.0864L317.942 100.747C309.944 136.832 289.958 190.556 253.559 205.158C224.461 216.833 194.833 203.172 183.416 173.517C172.409 191.915 160.845 206.488 144.112 218.115C118.74 235.747 85.6365 240.804 56.2387 229.651C-1.28897 207.826 -14.8106 133.147 16.2661 80.1126C35.2493 47.7193 71.683 31.2092 107.991 40.4535C135.62 47.4895 152.973 73.1742 147.288 101.081C145.526 109.726 138.483 114.373 130.493 115.55C123.554 116.574 112.61 111.433 112.624 102.67C112.645 89.8864 107.692 79.827 93.6965 77.4306C78.6981 74.867 63.7902 81.6592 54.1767 94.8464C29.9758 128.048 38.6767 183.047 76.2529 194.053C98.1271 200.462 120.837 192.653 136.86 177.362C164.279 151.197 174.06 117.299 180.253 81.0531C182.287 69.1686 192.012 62.676 202.698 64.2155C214.708 65.9362 220.044 76.2672 218.317 88.4931C215.217 110.451 211.295 141.117 219.71 161.207C223.534 170.326 233.099 174.938 242.385 171.19C250.571 167.881 256.903 161.166 261.682 153.67C272.577 136.568 281.174 118.678 285.388 98.6221C272.243 95.2086 260.289 90.0954 251.671 80.2241C234.033 60.0149 236.109 31.9894 254.632 13.0481C265.444 1.99256 280.177 -2.98138 296.367 1.8184C308.6 5.44785 319.607 17.2836 322.95 32.08C325.403 42.9265 324.887 53.3621 325.026 65.6785L350.286 61.7704C361.976 59.9591 374.487 63.4214 380.75 73.7872C385.849 82.2234 387.319 94.0104 384.365 103.819L371.15 147.651C368.858 155.258 365.041 172.625 372.216 177.724C381.133 184.064 395.073 161.932 399.155 154.722C411.025 133.746 417.121 111.781 422.394 88.4165C427.8 64.4663 444.324 44.9189 466.846 36.7056C488.957 28.6387 511.528 32.3796 529.264 47.4546C532.539 36.0578 540.759 30.3872 550.212 31.7456C560.125 33.1668 567.614 42.3065 565.482 53.1182L558.976 86.0479C556.064 100.775 552.142 135.85 564.075 145.888C566.241 147.707 573.173 148.487 575.437 146.912C581.776 142.503 585.817 135.982 587.544 128.939C590.024 118.88 598.015 113.781 607.545 115.369C617.075 116.957 622.85 126.055 620.781 136.651C615.117 165.659 587.245 192.089 554.176 181.751C540.208 177.383 528.331 165.15 523.28 147.289C512.705 161.597 500.069 171.469 483.44 174.346C464.896 177.55 447.794 171.281 434.223 157.682C421.015 189.33 394.083 225.667 357.455 212.786C326.169 201.786 327.757 161.96 336.2 135.69L348.921 96.0864H348.928ZM293.072 64.8704C294.605 53.5292 295.078 37.5416 286.022 33.8146C284.35 33.125 279.536 33.94 278.032 35.187C273.302 39.109 270.801 47.5313 273.929 53.1461C277.872 60.2099 284.726 64.7171 293.079 64.8704H293.072ZM493.499 132.339C504.597 120.427 513.068 104.725 514.231 88.4443C515.137 75.7378 502.458 66.8349 491.047 66.7861C481.058 66.7373 473.116 71.5511 466.846 79.0886C451.932 97.0059 450.754 132.297 470.824 137.759C478.801 139.932 487.23 139.075 493.499 132.346V132.339Z" fill="#7B75B5"/>
<path d="M203.296 49.5515C215.181 49.5515 224.815 39.9109 224.815 28.0187C224.815 16.1264 215.181 6.48584 203.296 6.48584C191.412 6.48584 181.777 16.1264 181.777 28.0187C181.777 39.9109 191.412 49.5515 203.296 49.5515Z" fill="#DA8FBD"/>
</g>
<defs>
<clipPath id="clip0_289_107">
<rect width="653" height="408.142" fill="white"/>
</clipPath>
</defs>
</svg>
