<svg width="603" height="267" viewBox="0 0 603 267" fill="none" xmlns="http://www.w3.org/2000/svg">
<g clip-path="url(#clip0_289_69)">
<path d="M434.452 195.618L434.198 196.751C433.172 197.467 428.101 197.198 426.592 197.198H410.019L386.18 197.183C384.102 197.183 375.887 197.6 374.667 196.746L374.571 195.608C376.222 192.9 391.728 196.421 392.846 180.645C394.213 161.283 393.217 141.224 393.44 121.739C393.593 108.514 393.999 89.9544 385.601 78.848C382.365 74.5243 377.528 71.6841 372.178 70.9627C365.583 70.0837 358.912 71.8823 353.653 75.957C351.845 77.3644 350.27 78.9851 348.893 80.7685C348.278 81.5661 347.755 82.4248 347.308 83.3241C339.57 98.9117 340.276 124.651 340.286 137.368C340.271 152.341 339.346 168.411 341.541 183.13C343.284 194.866 354.055 192.361 359.334 195.42L359.354 196.705C356.361 197.427 347.536 197.224 344.015 197.213L318.917 197.152C314.649 197.142 303.43 197.493 299.925 197.061C299.417 195.943 299.498 196.431 299.838 195.085C301.901 194.053 306.753 193.952 309.324 193.002C315.787 190.614 317.961 184.019 318.276 177.724C318.327 165.418 319.16 153.26 318.48 140.858C317.336 119.981 325.628 70.0736 292.73 70.8306C272.047 71.3082 265.269 95.843 265.081 112.604C264.893 129.528 265 147.58 264.924 164.605C264.858 170.199 264.919 175.305 265.726 180.854C266.88 188.759 270.599 192.951 278.652 194.216C280.09 194.444 282.213 194.409 283.494 194.953C283.748 196.279 283.829 195.796 283.397 196.99C273.017 197.899 257.831 196.741 246.958 197.193C244.687 197.285 226.549 197.28 224.898 196.985L224.603 196.106C226.249 192.753 241.796 195.847 242.492 181.545C244.123 147.956 242.63 114.149 243.27 80.4789C236.294 85.1023 228.073 88.608 219.609 87.3277C207.75 85.5393 205.835 77.2221 207.131 67.1623C207.288 67.3147 207.451 67.4621 207.613 67.6094C218.064 76.9071 239.225 70.7036 250.936 66.6949C253.726 65.7397 262.871 59.6784 264.832 61.5938C265.417 65.821 265 83.8372 264.969 88.9281C270.218 75.266 277.844 65.1402 292.786 61.355C302.201 58.9722 313.561 59.7648 321.99 64.9014C332.756 71.4606 336.435 82.4654 339.366 94.0342C340.281 89.6801 341.886 84.3707 344.173 79.7523C344.589 78.9089 345.067 78.1011 345.59 77.3187C354.487 64.1748 368.753 57.1279 386.917 61.035C416.812 67.4671 415.46 102.148 415.425 126.292L415.359 164.27C415.338 179.446 414.089 193.728 432.902 194.622C433.878 194.668 433.985 194.902 434.452 195.613V195.618Z" fill="#DBD4C2"/>
<path d="M146.761 182.814C115.921 148.285 114.986 53.9412 52.6713 60.5106C40.8434 61.7706 29.0866 66.3737 20.8711 75.5089C20.3986 76.0322 19.6314 77.1449 19.5653 77.8562L20.0023 78.3896C22.5833 78.6386 26.912 73.7662 29.6048 72.3639C42.2914 65.7641 58.067 66.2264 67.8677 77.7342C75.626 86.9202 70.972 95.4253 62.6854 101.827C45.355 115.215 19.3164 120.194 7.04135 139.704C-10.167 167.063 5.79149 197.781 37.4139 201.201C53.22 203.04 69.1125 198.503 81.5653 188.59C85.7417 185.212 88.5666 182.118 91.6455 177.784C98.982 166.657 101.599 156.724 101.411 143.336C110.022 168.71 124.553 211.413 160.51 199.448C164.147 198.239 169.116 195.886 171.84 193.255L171.921 192.467C168.283 189.586 159.453 197.009 146.766 182.809L146.761 182.814ZM96.3147 153.63C91.4219 178.327 68.9194 189.927 45.2636 185.105C29.6607 180.273 20.9168 168.318 21.75 151.903C23.0812 125.651 50.3545 117.603 67.4409 103.356C72.5166 99.1291 75.6412 93.642 76.0527 86.9303C76.5354 87.3266 76.8301 87.6162 77.1553 88.1802C87.5352 106.283 100.521 132.423 96.3197 153.635L96.3147 153.63Z" fill="#DBD4C2"/>
<path d="M602.888 191.422C601.588 191.046 597.477 192.722 594.307 192.229C582.946 190.624 574.944 180.229 569.808 170.707C555.851 144.826 548.85 115.592 534.857 89.7411C526.383 74.0925 511.832 61.5177 493.49 60.4305C490.533 60.2577 487.78 60.3492 484.828 60.5118C472.583 61.8023 460.034 66.3902 451.671 76.1096C451.402 76.4195 451.168 76.8717 450.995 77.2527L451.254 77.8624C454.15 78.3705 458.748 73.6048 461.472 72.1161C473.599 65.4807 491.9 66.8322 500.207 78.9446C513.6 98.4851 477.339 111.37 464.738 118.264C449.949 126.358 436.408 135.889 432.588 153.469C424.535 198.225 475.52 213.233 507.594 192.331C514.382 187.906 517.832 184.324 522.664 178.09C530.158 167.1 533.115 156.329 532.724 142.962C540.959 167.933 556.034 211.902 592.331 199.236C595.547 198.113 604.098 195.633 602.898 191.416L602.888 191.422ZM477.054 185.218C461.924 181.026 453.109 169.752 453.043 154.195C452.931 125.296 482.836 117.792 500.492 101.747C504.973 97.6721 507.157 92.5813 507.107 86.5759C511.242 90.0307 518.701 108.362 521.261 114.245C523.837 120.159 526.363 128.197 527.577 134.548C533.704 166.658 509.606 191.777 477.049 185.223L477.054 185.218Z" fill="#DBD4C2"/>
<path d="M220.178 192.793C218.674 192.565 216.87 192.849 215.346 192.91C209.732 193.134 205.56 191.731 202.029 187.199C198.285 182.393 196.38 175.956 195.511 169.996C193.021 152.869 195.816 2.80479 194.5 0.65565C194.347 0.411775 194.088 0.254273 193.88 0.0561249C193.351 0.035802 192.3 -0.035328 191.832 0.0256406C182.601 5.29435 174.05 8.13955 163.746 10.7256C161.323 11.3353 151.06 13.3981 149.932 14.3279C149.988 14.9172 149.876 15.1814 150.333 15.6082C154.321 19.3375 169.431 12.1381 171.926 32.3949C173.45 44.7512 172.526 58.0119 172.515 70.4596L172.475 140.208C172.49 159.499 169.543 183.805 186.345 197.117C190.984 199.932 193.834 200.719 199.326 201.496C205.042 202.304 218.882 198.854 221.748 193.626C221.209 192.89 221.087 192.93 220.178 192.793Z" fill="#DBD4C2"/>
<path d="M32.2979 242.314H33.7001L41.3009 264.512H41.3669L48.9677 242.314H50.37L42.0732 266.311H40.6048L32.308 242.314H32.2979Z" fill="#DBD4C2"/>
<path d="M69.8242 242.314H83.4558V243.645H71.2265V253.41H82.8918V254.741H71.2265V264.974H83.659V266.305H69.8293V242.309L69.8242 242.314Z" fill="#DBD4C2"/>
<path d="M104.079 242.314H105.476V264.98H117.909V266.311H104.079V242.314Z" fill="#DBD4C2"/>
<path d="M145.039 242.314H146.507L154.804 266.311H153.407L151.207 259.812H140.344L138.144 266.311H136.747L145.044 242.314H145.039ZM150.77 258.481L145.806 243.818H145.74L140.776 258.481H150.775H150.77Z" fill="#DBD4C2"/>
<path d="M173.263 259.446L174.695 259.081C174.731 262.012 176.926 265.213 181.763 265.213C185.893 265.213 188.164 262.881 188.164 259.482C188.164 251.383 174.299 256.55 174.299 248.314C174.299 243.813 178.166 241.984 181.93 241.984C185.995 241.984 188.632 244.148 189.394 247.984L187.997 248.32C187.428 245.388 185.263 243.422 181.798 243.422C178.831 243.422 175.834 244.854 175.834 248.086C175.834 254.919 189.633 249.818 189.633 259.253C189.633 263.785 186.666 266.651 181.534 266.651C176.067 266.651 173.369 263.353 173.268 259.451L173.263 259.446Z" fill="#DBD4C2"/>
<path d="M239.881 242.314H241.349L249.646 266.311H248.244L246.044 259.812H235.181L232.981 266.311H231.584L239.881 242.314ZM245.617 258.481L240.653 243.818H240.587L235.623 258.481H245.622H245.617Z" fill="#DBD4C2"/>
<path d="M283.042 264.212L281.873 257.713C281.609 256.179 280.405 255.249 277.809 255.249H270.508V266.315H269.105V242.319H277.804C281.137 242.319 284.038 244.183 284.038 248.685C284.038 252.384 281.67 253.817 280.141 254.386C281.543 254.65 282.91 255.585 283.372 258.15L284.337 263.516C284.602 265.08 284.805 265.649 285.171 266.315H283.672C283.408 265.782 283.204 265.218 283.037 264.217L283.042 264.212ZM276.838 253.913C280.303 253.913 282.671 252.114 282.671 248.68C282.671 244.813 280.07 243.645 276.808 243.645H270.508V253.908H276.838V253.913Z" fill="#DBD4C2"/>
<path d="M304.869 254.411C304.869 245.479 310.102 241.948 316.103 241.948C322.403 241.948 327.301 245.479 327.301 254.411C327.301 263.343 322.403 266.64 316.103 266.64C309.803 266.64 304.869 263.307 304.869 254.411ZM325.832 254.411C325.832 246.51 321.534 243.381 316.103 243.381C310.971 243.381 306.337 246.515 306.337 254.411C306.337 262.306 310.971 265.207 316.103 265.207C321.534 265.207 325.832 262.24 325.832 254.411Z" fill="#DBD4C2"/>
<path d="M347.856 242.314H349.391L358.556 262.343L367.753 242.314H369.317V266.311H367.915V245.048L358.917 264.68H358.186L349.254 245.348V266.311H347.856V242.314Z" fill="#DBD4C2"/>
<path d="M397.079 242.315H398.547L406.844 266.311H405.442L403.242 259.813H392.379L390.179 266.311H388.782L397.079 242.315ZM402.81 258.481L397.846 243.818H397.78L392.816 258.481H402.815H402.81ZM396.144 241.517L398.309 237.285L399.477 237.95L396.876 241.949L396.144 241.517Z" fill="#DBD4C2"/>
<path d="M428.437 243.646H421.405V242.314H436.871V243.646H429.839V266.311H428.437V243.646Z" fill="#DBD4C2"/>
<path d="M456.762 242.314H458.164V266.311H456.762V242.314Z" fill="#DBD4C2"/>
<path d="M478.726 254.411C478.726 245.514 484.025 241.978 489.492 241.978C493.892 241.978 497.326 244.112 498.759 248.375L497.428 248.974C496.259 245.341 493.297 243.411 489.497 243.411C484.899 243.411 480.199 246.546 480.199 254.375C480.199 262.204 484.899 265.207 489.766 265.207C493.932 265.207 496.534 262.809 497.433 259.974L498.733 260.34C497.6 264.44 494.166 266.64 489.766 266.64C484.035 266.64 478.736 263.307 478.736 254.411H478.726Z" fill="#DBD4C2"/>
<path d="M526.113 242.314H527.581L535.878 266.311H534.481L532.281 259.812H521.418L519.218 266.311H517.821L526.118 242.314H526.113ZM531.844 258.481L526.88 243.818H526.814L521.85 258.481H531.849H531.844Z" fill="#DBD4C2"/>
<path d="M554.342 259.446L555.775 259.081C555.81 262.012 558.01 265.213 562.842 265.213C566.973 265.213 569.239 262.881 569.239 259.482C569.239 251.383 555.373 256.55 555.373 248.314C555.373 243.813 559.24 241.984 563.005 241.984C567.069 241.984 569.701 244.148 570.468 247.984L569.066 248.32C568.497 245.388 566.332 243.422 562.867 243.422C559.9 243.422 556.903 244.854 556.903 248.086C556.903 254.919 570.702 249.818 570.702 259.253C570.702 263.785 567.735 266.651 562.603 266.651C557.136 266.651 554.439 263.353 554.337 259.451L554.342 259.446Z" fill="#DBD4C2"/>
</g>
<defs>
<clipPath id="clip0_289_69">
<rect width="603" height="266.646" fill="white"/>
</clipPath>
</defs>
</svg>
