<svg width="979" height="286" viewBox="0 0 979 286" fill="none" xmlns="http://www.w3.org/2000/svg">
<g clip-path="url(#clip0_289_94)">
<path d="M760.769 179.346C754.065 170.545 751.47 160.811 751.098 150.137L751.077 87.8197L699.749 87.8337L699.876 148.594C700.647 155.488 704.897 159.801 711.713 160.587L733.475 160.699L733.37 192.916L699.483 192.369C679.881 192.054 666.276 177.474 663.345 158.328L662.587 125.192L699.258 87.8968L636.457 87.8267V56.3243L662.566 56.2823L662.58 0.0380376L699.721 0.0871285L699.819 56.2893H751.028L751.084 -0.0180664L788.232 0.0450506L788.197 56.2191L821.958 56.2612L821.909 87.8127L788.246 87.8337L788.337 147.718C788.351 154.654 793.085 160.453 800.189 160.53L821.986 160.776L821.93 193.092L790.974 192.769C779.494 192.65 768.89 187.748 760.762 179.339L760.769 179.346Z" fill="#E26E3F"/>
<path d="M962.289 171.455C946.832 190.138 924.131 197.866 900.75 197.039C875.531 196.141 852.339 184.149 839.442 162.289C825.157 138.066 825.858 107.118 841.392 83.6805C868.14 43.3348 934.959 42.0093 963.874 79.9146C984.338 106.739 984.226 144.932 962.282 171.448L962.289 171.455ZM907.356 164.982C918.984 164.099 928.122 159.07 934.132 149.806C944.616 133.634 944.013 111.69 931.614 96.6546C923.683 87.0327 911.887 83.6595 899.768 84.9218C888.968 86.0509 878.308 92.04 872.418 102.791C865.538 115.358 865.124 130.906 870.882 144.048C877.165 158.383 891.233 166.216 907.356 164.989V164.982Z" fill="#E26E3F"/>
<path d="M329.865 190.163C306.02 200.254 278.179 199.511 255.583 188.066C240.281 180.316 231.031 165.898 230.014 149.831L267.154 147.552C268.038 156.269 272.099 163.731 280.241 166.704C290.178 170.337 301.827 170.372 311.399 166.066C316.947 163.576 319.128 157.44 318.546 152.019C317.964 146.661 312.823 142.544 306.596 141.38L270.373 134.613C259.335 132.551 247.806 127.733 240.898 118.637C225.925 98.9025 234.418 71.4186 256.726 60.6256C278.579 50.057 305.025 49.6713 327.34 59.5175C342.544 66.222 352.285 79.7991 353.989 95.3049L316.989 97.9417C316.091 89.7015 311.729 83.9508 304.457 81.2648C289.582 77.1342 271.201 80.816 271.117 93.2781C270.998 110.677 304.758 105.789 331.141 115.811C338.189 118.49 346.002 122.585 350.125 129.044C364.291 151.226 354.824 179.594 329.851 190.163H329.865Z" fill="#E26E3F"/>
<path d="M461.597 160.693L461.653 192.883L428.65 192.504C408.6 192.272 394.56 177.749 391.593 158.175L390.85 124.674L427.072 88.1154L364.264 87.7648V56.3536L390.703 56.2764L390.773 0.0322266H427.907L427.942 56.2624L461.674 56.2835L461.828 87.8349L427.815 87.8209L428.089 149.416C428.117 155.37 434.078 160.483 439.478 160.525L461.59 160.7L461.597 160.693Z" fill="#E26E3F"/>
<path d="M515.148 192.98L477.58 193.036L477.559 56.409L509.552 56.2898L515.015 84.8257C519.047 76.5013 522.379 69.5514 528.683 63.3309C539.771 54.4524 553.509 51.542 568.068 54.3893V90.0924C555.922 88.3953 544.82 88.7249 534.069 92.5961C522.47 97.7156 517.182 108.558 515.303 121.09L515.148 192.994V192.98Z" fill="#E26E3F"/>
<path d="M621.71 56.2466H583.686V193.021H621.71V56.2466Z" fill="#E26E3F"/>
<path d="M623.757 0.207551L584.597 40.2868L584.211 0.0322266L623.757 0.207551Z" fill="#E26E3F"/>
<path d="M69.7027 197.455C42.345 198.584 18.7884 184.762 7.55355 160.363C-2.29971 138.946 -2.31373 114.604 6.36134 92.6669C16.7265 67.911 39.9185 52.9803 66.7152 52.9032C86.6952 52.8471 104.228 61.8097 114.831 79.0546L114.965 43.3164L152.561 0.0322266V193.247L114.6 193.324L114.93 167.32C105.918 186.29 90.2578 196.606 69.7027 197.462V197.455ZM116.514 125.214C116.514 103.13 98.6103 85.2261 76.5193 85.2261C54.4284 85.2261 36.5242 103.13 36.5242 125.214C36.5242 147.298 54.4284 165.202 76.5193 165.202C98.6103 165.202 116.514 147.298 116.514 125.214Z" fill="#E26E3F"/>
<path d="M215.405 56.2383H177.443V193.02H215.405V56.2383Z" fill="#E26E3F"/>
<path d="M217.699 0.0953435L177.654 40.371L177.416 0.0322266L217.699 0.0953435Z" fill="#E26E3F"/>
</g>
<defs>
<clipPath id="clip0_289_94">
<rect width="979" height="285.618" fill="white"/>
</clipPath>
</defs>
</svg>
